<svg xmlns="http://www.w3.org/2000/svg" version="1.1" xmlns:xlink="http://www.w3.org/1999/xlink" xmlns:svgjs="http://svgjs.dev/svgjs" width="1500" height="1500" viewBox="0 0 1500 1500"><rect width="1500" height="1500" fill="#ffffff"></rect><g transform="matrix(0.6666666666666666,0,0,0.6666666666666666,249.39393939393932,645.1255123267725)"><svg viewBox="0 0 396 83" data-background-color="#051922" preserveAspectRatio="xMidYMid meet" height="314" width="1500" xmlns="http://www.w3.org/2000/svg" xmlns:xlink="http://www.w3.org/1999/xlink"><g id="tight-bounds" transform="matrix(1,0,0,1,0.24000000000003752,0.08240036725104005)"><svg viewBox="0 0 395.5199999999999 82.8323285003227" height="82.8323285003227" width="395.5199999999999"><g><svg viewBox="0 0 660.1442716859201 138.25163625074438" height="82.8323285003227" width="395.5199999999999"><g transform="matrix(1,0,0,1,262.6466716859202,0)"><svg viewBox="0 0 397.49759999999986 138.25163625074438" height="138.25163625074438" width="397.49759999999986"><g id="textblocktransform"><svg viewBox="0 0 397.49759999999986 138.25163625074438" height="138.25163625074438" width="397.49759999999986" id="textblock"><g><rect width="397.49759999999986" height="6.491385166421532" x="0" y="79.62863273141728" fill="#000000" opacity="1" stroke-width="0" stroke="transparent" fill-opacity="1" class="rect-qz-0" data-fill-palette-color="primary" rx="1%" id="qz-0" data-palette-color="#f28123"></rect></g><g transform="matrix(1,0,0,1,0.9887999999999693,0)"><svg viewBox="0 0 395.5199999999999 71.98171303275318" height="71.98171303275318" width="395.5199999999999"><g transform="matrix(1,0,0,1,0,0)"><svg width="395.5199999999999" viewBox="1.05 -32.58 182.41 33.21" height="71.98171303275318" data-palette-color="#f28123"><path d="M6.13 0L1.05 0 10.85-31.95 18.63-31.95 28.43 0 23.35 0 15.05-28.6 14.43-28.6 6.13 0ZM21.98-8.93L7.45-8.93 7.45-13.08 21.98-13.08 21.98-8.93ZM56.65 0L51.45 0 50.6-6.48Q50.37-8.25 49.81-9.51 49.25-10.78 48.07-11.48 46.9-12.18 44.8-12.18L44.8-12.18 36.47-12.2 36.47-16.15 45.32-16.18Q48.4-16.18 49.72-17.65 51.05-19.13 51.05-21.75L51.05-21.75 51.05-22.45Q51.05-25.03 49.7-26.43 48.35-27.83 45.22-27.83L45.22-27.83 36.37-27.83 36.37-31.95 45.92-31.95Q51.25-31.95 53.69-29.68 56.12-27.4 56.12-23.33L56.12-23.33 56.12-22.53Q56.12-19.5 54.73-17.57 53.35-15.65 50.1-15.15L50.1-15.15 50.1-14.5 48-15.23Q50.77-15.03 52.28-14.03 53.8-13.03 54.5-11.28 55.2-9.53 55.57-7.03L55.57-7.03 56.65 0ZM37.97 0L33.02 0 33.02-31.95 37.95-31.95 37.95-14.78 37.97-12.9 37.97 0ZM64.67 0L59.59 0 69.4-31.95 77.17-31.95 86.97 0 81.9 0 73.59-28.6 72.97-28.6 64.67 0ZM80.52-8.93L66-8.93 66-13.08 80.52-13.08 80.52-8.93ZM105.14 0L95.04 0 95.04-4.13 104.62-4.13Q107.67-4.13 108.94-5.38 110.22-6.63 110.22-8.88L110.22-8.88 110.22-9.65Q110.22-11.95 108.92-13.19 107.62-14.43 104.42-14.43L104.42-14.43 95.02-14.43 95.02-18.38 104.37-18.38Q107.24-18.38 108.46-19.59 109.67-20.8 109.67-22.98L109.67-22.98 109.67-23.38Q109.67-25.5 108.49-26.68 107.32-27.85 104.34-27.85L104.34-27.85 94.94-27.85 94.94-31.95 104.82-31.95Q110.09-31.95 112.39-29.94 114.69-27.93 114.69-24.18L114.69-24.18 114.69-23.73Q114.69-20.85 113.37-19.26 112.04-17.68 109.27-17.3L109.27-17.3 109.27-17.05Q112.44-16.43 113.88-14.63 115.32-12.83 115.32-9.55L115.32-9.55 115.32-8.6Q115.32-4.5 112.92-2.25 110.52 0 105.14 0L105.14 0ZM96.52 0L91.57 0 91.57-31.95 96.52-31.95 96.52 0ZM125.94-31.95L125.94 0 120.92 0 120.92-31.95 125.94-31.95ZM144.16 0.63L144.16 0.63Q138.04 0.63 135-2.78 131.96-6.18 131.96-12.45L131.96-12.45 131.96-19.55Q131.96-25.8 135-29.19 138.04-32.58 144.16-32.58L144.16-32.58Q146.04-32.58 147.59-32.25 149.14-31.93 150.36-31.4 151.59-30.88 152.46-30.3L152.46-30.3 152.86-25.7Q151.39-26.7 149.44-27.45 147.49-28.2 144.84-28.2L144.84-28.2Q140.99-28.2 139.03-25.93 137.06-23.65 137.06-19.48L137.06-19.48 137.06-12.63Q137.06-8.47 139.05-6.18 141.04-3.88 144.99-3.88L144.99-3.88Q147.59-3.88 149.6-4.61 151.61-5.35 153.11-6.43L153.11-6.43 152.71-1.7Q151.84-1.13 150.58-0.59 149.31-0.05 147.7 0.29 146.09 0.63 144.16 0.63ZM161.16 0L156.09 0 165.89-31.95 173.66-31.95 183.46 0 178.39 0 170.09-28.6 169.46-28.6 161.16 0ZM177.01-8.93L162.49-8.93 162.49-13.08 177.01-13.08 177.01-8.93Z" opacity="1" transform="matrix(1,0,0,1,0,0)" fill="#000000" class="wordmark-text-0" data-fill-palette-color="primary" id="text-0"></path></svg></g></svg></g><g transform="matrix(1,0,0,1,0,93.76693759650293)"><svg viewBox="0 0 190.22695391526094 44.48469865424146" height="44.48469865424146" width="190.22695391526094"><g transform="matrix(1,0,0,1,0,0)"><svg width="190.22695391526094" viewBox="0.68 -31.05 133.361914893617 31.180133639993002" height="44.48469865424146" data-palette-color="#f28123"><path d="M0.68-26.27L0.68-26.27Q1.46-27.39 2.76-28.2 4.05-29 5.64-29.54 7.23-30.08 9.06-30.37 10.89-30.66 12.65-30.81 14.4-30.96 16.06-31.01 17.72-31.05 18.99-31.05L18.99-31.05Q19.09-31.05 19.43-31.03 19.78-31.01 20.17-30.98 20.56-30.96 20.87-30.96 21.19-30.96 21.34-30.96L21.34-30.96Q21.53-29.88 21.12-29.47 20.7-29.05 20.04-28.98 19.38-28.91 18.65-29.03 17.92-29.15 17.58-29.05L17.58-29.05Q17.09-29 16.04-28.78 14.99-28.56 13.72-28.3 12.45-28.03 11.01-27.71 9.57-27.39 8.28-27.12 6.98-26.86 5.96-26.61 4.93-26.37 4.44-26.27L4.44-26.27Q3.66-25.98 3.56-25.54 3.47-25.1 3.47-24.51L3.47-24.51Q3.47-23.49 3.59-22.22 3.71-20.95 3.88-19.7 4.05-18.46 4.22-17.43 4.39-16.41 4.44-15.92L4.44-15.92Q4.64-15.87 5.18-15.87 5.71-15.87 5.91-15.87L5.91-15.87Q7.03-15.87 8.11-16.06 9.18-16.26 10.25-16.5 11.33-16.75 12.45-16.92 13.57-17.09 14.75-17.09L14.75-17.09 14.75-15.28Q14.26-15.28 13.38-15.21 12.5-15.14 11.45-14.94 10.4-14.75 9.33-14.53 8.25-14.31 7.37-14.06 6.49-13.82 5.93-13.57 5.37-13.33 5.37-13.09L5.37-13.09 5.37-2.93Q7.67-2.93 9.94-3.08 12.21-3.22 14.5-3.39 16.8-3.56 19.09-3.71 21.39-3.86 23.68-3.86L23.68-3.86Q23.68-3.27 23.29-2.91 22.9-2.54 22.39-2.32 21.88-2.1 21.29-2 20.7-1.9 20.41-1.86L20.41-1.86Q20.21-1.81 19.19-1.71 18.16-1.61 16.65-1.42 15.14-1.22 13.28-1.03 11.43-0.83 9.62-0.63 7.81-0.44 6.2-0.27 4.59-0.1 3.52 0L3.52 0Q3.37 0.05 3.08 0.05L3.08 0.05Q3.08-6.49 2.66-13.16 2.25-19.82 0.68-26.27ZM25.29-10.3L26.27-11.23Q26.27-11.28 27.37-11.45 28.46-11.62 30.17-11.82 31.88-12.01 34.03-12.21 36.18-12.4 38.38-12.6L38.38-12.6Q38.57-12.6 39.16-12.62 39.74-12.65 40.35-12.67 40.96-12.7 41.53-12.72 42.09-12.74 42.33-12.74L42.33-12.74Q42.33-12.11 42.06-11.57 41.79-11.04 41.21-10.74L41.21-10.74Q40.04-10.6 38.28-10.42 36.52-10.25 34.67-10.06 32.81-9.86 31.05-9.67 29.29-9.47 28.12-9.38L28.12-9.38Q28.02-9.38 27.66-9.35 27.29-9.33 27.1-9.33L27.1-9.33Q26.46-9.33 26.02-9.42 25.58-9.52 25.29-10.3L25.29-10.3ZM46.19-3.71L46.19-3.71Q46.43-4.3 46.94-4.44 47.46-4.59 48.04-3.71L48.04-3.71Q48.04-3.61 48.51-3.44 48.97-3.27 49.68-3.05 50.39-2.83 51.34-2.61 52.29-2.39 53.22-2.22 54.15-2.05 55.02-1.93 55.9-1.81 56.54-1.81L56.54-1.81Q58.2-1.81 59.59-2.51 60.98-3.22 61.98-4.35 62.98-5.47 63.52-6.91 64.06-8.35 64.06-9.86L64.06-9.86Q64.06-10.3 63.91-11.4 63.76-12.5 63.42-13.6 63.08-14.7 62.52-15.58 61.96-16.46 61.18-16.46L61.18-16.46Q56.1-15.87 52.85-15.99 49.6-16.11 47.7-16.75 45.8-17.38 45.04-18.48 44.28-19.58 44.23-21L44.23-21Q44.23-22.75 45.11-24.39 45.99-26.03 47.36-27.29 48.73-28.56 50.41-29.32 52.09-30.08 53.75-30.08L53.75-30.08Q55.12-30.08 56.61-29.74 58.1-29.39 59.37-28.69 60.64-27.98 61.45-26.83 62.25-25.68 62.25-24.07L62.25-24.07Q61.08-24.07 60.1-24.73 59.13-25.39 58.15-26.12 57.17-26.86 56.1-27.51 55.02-28.17 53.61-28.17L53.61-28.17Q52.44-28.17 51.24-27.59 50.04-27 49.09-26.07 48.14-25.15 47.53-24 46.92-22.85 46.92-21.63L46.92-21.63Q46.92-21.14 46.94-20.58 46.97-20.02 47.16-19.51 47.36-18.99 47.77-18.65 48.19-18.31 48.97-18.31L48.97-18.31 62.1-18.31Q62.93-18.31 63.54-17.8 64.16-17.29 64.57-16.5 64.99-15.72 65.25-14.75 65.52-13.77 65.69-12.84 65.86-11.91 65.91-11.11 65.96-10.3 65.96-9.86L65.96-9.86Q65.96-7.96 65.42-6.27 64.89-4.59 63.81-3.25 62.74-1.9 61.13-1.05 59.52-0.2 57.42 0L57.42 0Q56.39 0.1 54.76-0.05 53.12-0.2 51.46-0.61 49.8-1.03 48.33-1.78 46.87-2.54 46.19-3.71ZM74.46-17.72L74.46-17.72Q74.02-17.87 73.26-17.85 72.5-17.82 71.65-17.75 70.79-17.68 70.01-17.58 69.23-17.48 68.69-17.48L68.69-17.48Q68.45-17.48 68.38-18.19 68.3-18.9 68.16-20.12L68.16-20.12 75.04-20.61Q75.19-22.31 75.24-23.05 75.29-23.78 75.26-24.29 75.24-24.8 75.21-25.46 75.19-26.12 75.19-27.54L75.19-27.54Q76.46-27.73 77.12-27.66 77.78-27.59 78.02-27.29 78.26-27 78.24-26.44 78.22-25.88 78.09-25.05 77.97-24.22 77.9-23.05 77.82-21.88 77.97-20.41L77.97-20.41 83.83-20.61 83.83-18.21Q83.44-18.21 82.61-18.16 81.78-18.12 80.83-18.07 79.88-18.02 79.07-17.97 78.26-17.92 77.87-17.77L77.87-17.77Q77.48-16.02 77.04-14.01 76.6-12.01 76.46-10.06 76.31-8.11 76.56-6.42 76.8-4.74 77.78-3.64 78.75-2.54 80.56-2.12 82.37-1.71 85.34-2.39L85.34-2.39Q85.25-1.66 84.78-1.2 84.32-0.73 83.71-0.46 83.1-0.2 82.41-0.07 81.73 0.05 81.19 0.05L81.19 0.05Q78.7 0.05 77.24-0.85 75.77-1.76 75.04-3.22 74.31-4.69 74.11-6.57 73.92-8.45 73.99-10.4 74.06-12.35 74.26-14.26 74.46-16.16 74.46-17.72ZM87.25-8.94L87.25-8.94Q87.25-10.06 87.44-11.55 87.64-13.04 88.08-14.55 88.52-16.06 89.17-17.53 89.83-18.99 90.76-20.14 91.69-21.29 92.91-22 94.13-22.71 95.64-22.71L95.64-22.71Q97.21-22.71 98.55-21.63 99.89-20.56 100.84-18.85 101.8-17.14 102.28-15.04 102.77-12.94 102.68-10.94L102.68-10.94Q102.68-8.01 101.55-5.71 100.43-3.42 98.7-2 96.96-0.59 94.99-0.1 93.01 0.39 91.27-0.37 89.54-1.12 88.39-3.22 87.25-5.32 87.25-8.94ZM89.05-8.74L89.05-8.74Q89.2-5.76 90.08-4.15 90.96-2.54 92.2-2.03 93.45-1.51 94.91-2 96.38-2.49 97.65-3.74 98.92-4.98 99.82-6.86 100.72-8.74 100.82-11.08L100.82-11.08Q100.92-12.84 100.55-14.5 100.19-16.16 99.53-17.46 98.87-18.75 97.91-19.51 96.96-20.26 95.74-20.26L95.74-20.26Q94.57-20.26 93.64-19.68 92.71-19.09 91.96-18.09 91.2-17.09 90.66-15.82 90.13-14.55 89.76-13.28 89.39-12.01 89.22-10.82 89.05-9.62 89.05-8.74ZM104.82-19.04L104.82-19.04Q105.41-19.29 105.85-19.14 106.29-18.99 106.58-18.6 106.87-18.21 107.02-17.7 107.17-17.19 107.26-16.7L107.26-16.7Q107.9-17.77 109.09-18.43 110.29-19.09 111.66-19.31 113.02-19.53 114.39-19.41 115.76-19.29 116.71-18.82 117.66-18.36 118.05-17.55 118.44-16.75 117.86-15.67L117.86-15.67Q116.59-16.41 115.2-16.85 113.81-17.29 112.49-17.14 111.17-16.99 110.05-16.14 108.92-15.28 108.19-13.43 107.46-11.57 107.29-8.52 107.12-5.47 107.7-0.93L107.7-0.93 105.85-0.93Q105.85-0.93 105.77-1.73 105.7-2.54 105.63-3.86 105.55-5.18 105.43-6.79 105.31-8.4 105.21-10.06 105.11-11.72 105.04-13.26 104.97-14.79 104.87-15.92L104.87-15.92Q104.87-16.06 104.85-16.5 104.82-16.94 104.82-17.46 104.82-17.97 104.82-18.41 104.82-18.85 104.82-19.04ZM120.4-11.47L120.4-11.47Q120.4-12.94 121.03-14.72 121.66-16.5 122.76-18.04 123.86-19.58 125.25-20.63 126.65-21.68 128.16-21.68L128.16-21.68Q128.99-21.68 129.79-21.34 130.6-21 131.36-20.43 132.11-19.87 132.72-19.17 133.33-18.46 133.68-17.68 134.02-16.89 134.04-16.16 134.07-15.43 133.63-14.89L133.63-14.89 123.32-12.99Q123.13-12.94 122.98-12.52 122.84-12.11 122.74-11.47 122.64-10.84 122.57-10.08 122.49-9.33 122.45-8.62 122.4-7.91 122.4-7.35 122.4-6.79 122.4-6.49L122.4-6.49Q122.4-5.13 123.06-4.27 123.72-3.42 124.74-2.98 125.77-2.54 127.06-2.39 128.35-2.25 129.62-2.25 130.89-2.25 132.02-2.34 133.14-2.44 133.87-2.44L133.87-2.44Q133.87-2.25 133.73-2 133.58-1.76 133.38-1.54 133.19-1.32 132.99-1.15 132.8-0.98 132.75-0.93L132.75-0.93Q132.36-0.83 131.55-0.66 130.75-0.49 129.84-0.34 128.94-0.2 128.16-0.1 127.38 0 127.08 0L127.08 0Q125.57 0.29 124.45-0.05 123.32-0.39 122.54-1.22 121.76-2.05 121.27-3.25 120.79-4.44 120.54-5.81 120.3-7.18 120.27-8.64 120.25-10.11 120.4-11.47ZM127.48-19.82L127.48-19.82Q127.04-19.82 126.33-19.36 125.62-18.9 125.01-18.19 124.4-17.48 123.98-16.67 123.57-15.87 123.72-15.28L123.72-15.28Q124.99-15.14 126.35-15.33 127.72-15.53 128.84-15.94 129.97-16.36 130.7-16.92 131.43-17.48 131.41-18.07 131.38-18.65 130.48-19.12 129.57-19.58 127.48-19.82Z" opacity="1" transform="matrix(1,0,0,1,0,0)" fill="#000000" class="slogan-text-1" data-fill-palette-color="secondary" id="text-1"></path></svg></g></svg></g></svg></g></svg></g><g transform="matrix(1,0,0,1,0,12.518617776289446)"><svg viewBox="0 0 245.65351679999992 113.21440069816549" height="113.21440069816549" width="245.65351679999992"><g><svg xmlns="http://www.w3.org/2000/svg" xmlns:xlink="http://www.w3.org/1999/xlink" version="1.1" x="0" y="0" viewBox="0.191 27.762 99.809 45.99900000000001" enable-background="new 0 0 100 100" xml:space="preserve" height="113.21440069816549" width="245.65351679999992" class="icon-icon-0" data-fill-palette-color="accent" id="icon-0"><g fill="#f28123" data-fill-palette-color="accent"><path fill="#000000" d="M95.009 48.701v-7.378H78.573v-0.108L50.096 27.762 21.617 41.323H5.182v7.378L0.191 53.8h4.99v16.219h16.436v3.742h9.493v-3.742h12.748V58.789h4.991v11.229h1.247 1.247V58.789h4.991v11.229h12.747v3.742h9.492v-3.742h16.436V53.8H100L95.009 48.701zM18.905 65.027h-9.98V53.8h9.98V65.027zM20.153 45.066H8.925v-1.248h11.229V45.066zM41.362 65.027h-9.981V53.8h9.981V65.027zM56.334 56.294H43.857V53.8h12.477V56.294zM68.81 65.027h-9.98V53.8h9.98V65.027zM25.144 43.818l2.496-1.248h44.914l2.495 1.248H25.144zM91.267 65.027h-9.98V53.8h9.98V65.027zM91.267 45.066H80.039v-1.248h11.228V45.066z" data-fill-palette-color="accent"></path></g></svg></g></svg></g></svg></g><defs></defs></svg><rect width="395.5199999999999" height="82.8323285003227" fill="none" stroke="none" visibility="hidden"></rect></g></svg></g></svg>